<?xml version="1.0" encoding="utf-8"?>
<!-- Generator: Adobe Illustrator 27.0.0, SVG Export Plug-In . SVG Version: 6.00 Build 0)  -->
<svg version="1.1" id="Layer_1" xmlns="http://www.w3.org/2000/svg" xmlns:xlink="http://www.w3.org/1999/xlink" x="0px" y="0px"
	 viewBox="0 0 512 512" style="enable-background:new 0 0 512 512;" xml:space="preserve">
<style type="text/css">
	.st0{fill:#FFFFFF;}
	.st1{fill:#0068AC;}
	.st2{fill:#E29717;}
</style>
<g id="XMLID_1_">
	<path id="XMLID_3_" class="st0" d="M256,0C114.6,0,0,114.6,0,256s114.6,256,256,256s256-114.6,256-256S397.4,0,256,0"/>
	<path id="XMLID_74_" class="st1" d="M251.79,177.59c-1.12,0-2.24,0.28-3.23,0.98c-0.42,0.28-0.98,0.7-1.26,0.98
		c-0.28,0.42-0.14,0.42,0,0.98c0.14,0.42-0.28,1.12,0,1.54c0.28,0.28,0.98,0.14,1.4,0.14c1.54,0,2.95-0.84,3.79-2.1
		c0.28-0.42,1.54-2.24,1.4-2.67c-0.14-0.28-0.7-0.28-0.84,0.14c-0.7,2.95-4.21,4.07-4.77,2.81
		C247.86,178.99,252.35,177.59,251.79,177.59 M253.19,193.86c-0.84,0.7-2.52,1.82-3.51,2.24c-1.82,0.84-2.81-0.28-2.81-0.14
		c-0.14,0.42,2.1,2.1,4.63,0.28C253.48,194.84,253.76,193.3,253.19,193.86 M248.71,189.93c0.28-0.14,0.56,0,0.56,0l0.14-0.7
		l-0.7-0.14c0,0-1.26,1.4-2.67,2.24c-0.56,0.28-1.12,0.42-1.12,0.42c-0.28,0-0.28,0.28-0.28,0.28l0.42,0.42c0,0,0.28,0,0.56-0.14
		c0,0,1.68-0.14,1.96-0.42C247.86,191.61,248.71,189.93,248.71,189.93 M298.64,320.95c-2.95,0-15.99,25.95-43.34,8
		c-1.12-0.7-3.65-3.37-4.07-2.81c-0.42,0.56,0.98,2.1,1.82,2.81C279.57,355.59,302.57,320.95,298.64,320.95 M240.01,184.88
		c-0.7-0.28-1.82,0-2.38,0.14c-0.56,0.28-2.95,1.4-2.1,2.52c-0.14-0.28,2.1-2.24,3.79-1.54c0.28,0.7-2.1,1.68-3.23,2.1
		c-0.84,2.1,2.52,0.28,3.09,0c1.12-0.7,1.54-1.68,2.24-1.96C241.83,185.86,240.15,185.02,240.01,184.88 M253.9,191.19
		c0,0-2.1,0.56-3.65,0.98c-1.82,0.7-1.54,1.82-2.81,1.82c-1.4,0.14-1.82,0.98-1.82,0.98c-0.28,0.42,2.81,0.42,3.79-0.7
		c1.12-1.96,2.24-1.4,3.09-1.82C253.33,192.18,254.74,190.91,253.9,191.19 M327.26,309.87c1.82,0,0.28-1.26,8.84-1.26
		c0.98,0,0.98-1.26,0.14-1.26h-8.28C325.3,307.34,325.58,309.87,327.26,309.87 M217.56,244.64c0.14,0.98,0.84,1.4,1.68,1.26
		c2.24-0.28,2.24-6.59,2.1-6.73C221.21,239.03,217.42,242.81,217.56,244.64 M227.52,246.74c0,0.84,1.26,1.4,2.1,1.12
		c0.84-0.56,1.68-5.89,1.12-6.03C230.47,241.69,227.66,245.2,227.52,246.74 M211.39,236.36c-0.84,1.96,1.12,2.52,1.96,2.1
		c1.4-0.7,2.38-5.61,2.24-5.75C215.46,232.57,212.09,235.24,211.39,236.36 M232.85,253.48c0.14,0.84,1.26,1.4,2.1,1.26
		c1.26-0.42,0.7-6.17,0.7-6.17C235.52,248.43,232.71,251.79,232.85,253.48 M252.63,172.54c-2.38,0.14-2.95,0.42-4.77,1.12
		c-1.82,0.7-4.35,3.51-4.35,3.51s-0.56,1.4-0.14,2.81c0.42,1.4,0.42,1.54,1.12,2.24s1.4,0.84,1.4,0.84s-2.95-3.51-1.4-5.33
		c5.05-5.61,9.54-2.67,9.54-2.67S255.72,172.4,252.63,172.54 M243.66,279.57c0.14,0.14,1.68,1.12,2.24,0.56
		c0.42-0.42-9.12-8-27.91-11.5c-8.7-1.68-17.11-1.96-23.29-1.96c-6.31,0-10.52,0.42-10.52,0.42c-0.98,0.14-1.68,2.1-1.68,2.1
		s5.89-0.56,12.2-0.56c6.03,0,14.31,0.42,22.86,1.96C228.37,272.41,237.34,275.08,243.66,279.57 M316.32,341.29
		c-0.84-0.28-3.93,24.97-6.45,31.7c-2.67,7.29-4.63,9.96-8.7,12.34c-0.84,0.42-0.56,2.24-0.56,2.24s9.82-2.67,12.06-12.48
		c1.54-6.31,2.81-13.89,3.51-19.08c0.42-2.81,1.26-12.76,1.26-12.76l0,0C317.58,342.13,317.16,341.57,316.32,341.29 M186.28,310.57
		h-10.24c-0.84,0-0.28,0.7,0.7,0.7c8.56,0,8.42,1.68,10.24,1.68C188.67,312.95,188.95,310.57,186.28,310.57 M294.86,248.99
		c-0.56-0.7-4.07-4.91-4.35-4.77c-0.42,0.28,0.98,5.89,2.1,7.01C294.01,252.07,295.42,250.53,294.86,248.99 M116.71,273.39
		c0.7,0.56,1.12,1.26,1.68,1.4c0.42,0.14,0.84,0.14,1.4-0.42c0.7-0.56,1.82-1.68,2.1-2.67c0.28-0.98,0.14-1.54-0.84-1.82
		c-0.28-0.14-1.26-0.14-1.26,0.42c0,0.42,0.98,0.42,0.98,1.12c0,1.12-0.7,0.84-1.54,0.7s-1.54-0.14-2.38-0.42
		C115.16,271.43,115.59,272.41,116.71,273.39 M433.45,267.36c0,0-0.56-1.26-1.68-1.96c-1.12-0.7-2.52-0.28-3.65,0
		c-0.42,0.14-0.98,0.42-1.54,0.28l-0.98-0.7c-0.98,1.12-3.23,1.54-4.63,1.4c-0.56-0.14-0.7-0.28-1.12-0.56
		c-0.56-0.28-0.28-0.14-0.84,0.14c-1.26,0.7-3.23,0.56-4.35-0.28c-1.12-0.84-1.54-2.81-1.96-4.07c-0.56-1.4-0.98-2.1-1.26-2.24
		l-0.28-0.56l-0.56-0.14c0.28-0.28,0.56-0.56,0.84-0.7c1.68-0.56,2.1,3.09,2.52,3.93c0.42,0.98,0.84,2.24,1.68,2.95
		c0.42,0.28,0.84,0.42,1.4,0.42l0.98-0.56c-0.7-0.56-1.96-4.77-0.28-4.21c0.42,0.14,0.7,1.96,1.12,2.38
		c1.54,1.4,4.35,1.12,6.17,0.84c0.84-0.14,2.67-0.14,2.1-1.4c0.98,0,1.12,0.98,1.96,1.26c0.42,0.14,4.21-0.84,4.35-0.56
		c0.84-0.98-2.38-2.52-4.77-8.84c-0.42-1.26-1.4-3.09-3.37-6.31c-3.37-7.43-10.24-13.33-24.13-8c-4.07,1.54-7.57,5.05-9.96,8.56
		c-1.54,2.24-5.19,7.86-1.96,10.1c0.14-0.28,0.42-0.56,0.56-0.7c1.4-1.82,2.24-2.52,4.07-3.51c0.14-0.14,4.07-2.38,3.93-1.26
		c0,0.42,0.14,0.84,0.14,1.12c3.65,0.14,4.07,1.82,5.47,4.49c0.56,0.98,3.51,4.77,5.05,3.79c-0.14,0.42-0.28,0.84-0.28,0.98
		l-0.56,0.42c-0.7,0.28-1.68-0.56-2.67-1.26c-2.52-1.96-5.19-4.77-8.28-5.75c-1.68-0.56-4.63-0.56-5.75,0.98
		c-1.4,1.96,0.7,5.19,1.4,7.29c0.14,0.42,0.14,0.98,0.42,1.4c0.28,0.56,0.7,0.98,0.98,1.4c0.28,0.7,0.28,0.42,0.56,1.12
		c0.42,0.98,0.98,3.37,1.12,4.21c0.28,1.26,0.42,1.82,0.7,3.09c0.28,0.98,0.84,3.09,2.38,2.38c0.7-0.28,1.12-1.12,1.96-1.26
		c0.42-0.14,0.7,0.28,1.26,0.98c0.42,0.7,0.42,0.42,0.42,0.7c0.28,0.42,1.12,0.84,1.68,0.28c1.68-0.98,1.68-1.26,2.1-1.12
		c0.98,0.28,1.26,0.28-0.42,2.24c-0.28,1.12,1.12,1.4,1.12,1.4c1.96,0.14,1.96,2.67,4.21,2.1c1.82-0.42,3.37-2.38,4.63-3.79
		c0.84-0.84,1.26-1.68,2.38-3.09c0.42-0.56,1.4-2.52,1.96-1.54c0.28,0.42,0.14,1.26,0.28,1.82c0.14,1.4,1.68,0.98,3.37-0.84
		C430.92,269.47,433.31,269.19,433.45,267.36 M409.32,312.53c-0.56,1.96,0.56,2.24,1.68,3.51c0,1.26-1.54-0.14-2.38-0.7l-0.7-0.42
		c-2.24-0.98-5.05-1.54-7.43-1.82c-2.38-0.28-3.51-0.7-7.86-1.68c-2.38-0.56-3.93-2.38-5.33,0.84c-0.56,1.4-2.38,5.47-0.98,6.31
		c1.12,0.7,9.96,0,10.66,0c1.96,0,17.53,2.67,18.52,3.09c0.56,0.28,0.28-1.68,0.28-1.68c-1.82-3.79-2.24-12.34-2.24-12.34h-2.81
		C410.3,309.58,409.74,310.71,409.32,312.53 M393.75,321.23c-0.42-0.56-2.24-0.56-2.81-0.56c-1.26-0.14-2.38-0.28-3.65-0.42
		c-2.1-0.14-5.47-0.28-9.12,0.7c-2.52,0.7-5.05,1.4-7.29,2.81c-1.26,0.84-0.42,1.54,0.7,1.82c1.4,0.28,2.52-0.56,3.93-0.42
		c1.54,0.14,2.81,0.14,4.21,0.14c0.7,0,1.4,0.28,2.24,0.42c2.1,0.42,4.07,1.54,6.17,1.82c1.68,0.28,2.95,0.42,4.49,1.12
		C393.19,327.26,394.87,322.49,393.75,321.23 M369.76,315.34c-0.56-1.54-0.14-2.95,0.28-4.35c0.42-1.4,0.56-3.09,0.7-4.63
		c-1.4,1.4-5.47,4.49-4.49,7.01c0.84,2.1,2.1,4.21,2.81,6.31C370.74,319.68,370.04,316.04,369.76,315.34 M361.77,221.35
		c-0.56-0.28-1.26,0.7-2.1,0.98c-1.82,0.84-3.79,2.1-5.89,3.51c-1.96,1.4-3.09,2.24-3.79,2.95l-1.26,1.4
		c-0.28-0.28,0.14-1.4,0.42-1.82c0.14,0,6.03-5.89,10.52-7.29c2.38-0.84,2.52-2.24,2.1-2.95c-0.42-0.7-2.52,0.28-2.52,0.28
		c-0.56,0.7-0.98,0.7-2.24,1.4c-1.96,0.7-4.49,2.52-6.73,4.35c-2.52,1.54-3.65,4.49-3.65,3.51c0-0.7,0.7-2.1,2.1-3.37
		c2.1-1.68,5.75-4.77,7.86-5.47c1.96-0.42,2.67-1.96,2.24-2.24c-0.56-0.42-3.65,0.56-6.17,1.4c-1.96,0.7-5.47,3.51-6.45,3.79
		c-0.42,3.23-1.26,3.51-2.52,5.05c-1.12,1.54-0.7,2.1-0.98,2.38c-0.42,0.42-0.84-1.12-0.28-1.96c0,0,0-0.42,1.26-1.96
		c2.1-2.67,2.1-4.07,2.24-4.77c0-0.56-0.42-1.82-1.26-1.54c-0.56,0.14-0.84,1.12-1.26,1.54c-0.42,0.56-0.98,1.12-1.54,1.82
		c-0.98,1.12-1.96,2.1-2.81,3.37c-0.84,1.12-1.96,8-1.96,8c-0.14,0.28,0,1.26-1.26,2.81c-0.42,0.7-1.12,0.7-1.54,1.26
		c-0.42,0.56-0.14,1.26,0,1.82c0.14,0.98,0.7,2.1,1.12,2.95c0.56,0.98,0.84,1.96,1.82,2.67c1.68,1.4,3.23,0.84,4.91-0.14
		c1.68-0.84,3.23-1.82,4.49-3.23c2.1-2.24,3.37-5.05,4.91-7.86c0.28-0.56,0.56-0.98,0.98-1.4c1.96-1.4,4.49-4.21,5.47-4.77
		c1.26-0.7,2.95-1.96,2.38-2.95c-4.49,1.68-8.28,6.17-9.54,6.59c0-0.98,0-0.56,0.84-1.4c3.65-3.65,7.01-5.05,8.7-6.17
		C360.5,224.44,362.89,222.33,361.77,221.35 M347.88,393.89c-1.68,0.28-8.42,2.1-14.45,1.96c-9.82-0.28-9.4-0.98-10.38-2.38
		c-3.09-4.49-1.82-31.14-3.23-53.3c-0.7-10.8,7.86-43.63-15.29-48.68c-15.71-1.96-28.34,23-48.11,12.2
		c-8.42-4.63-21.32-11.92-38.72-11.92c-25.67,2.95-23.29,21.18-23,24.13c0.7,6.45,0.84,11.5,0.42,16.83
		c-0.28,12.48-4.07,26.93-4.35,42.78c1.96,25.81,15.01,26.51,15.71,26.65c1.68,0.7-17.53,1.68-14.73,0.42
		c1.26-0.42,1.82-0.42,1.96-1.12c0.14-0.98,0.56-2.52-0.56-2.95c-2.24-1.12-2.95-1.12-2.95-1.12s-0.28,0.42-0.56,0.56
		c0,0-3.93,1.26-9.82,1.26c-1.96,0-10.1-1.12-11.36-1.26c-2.24-0.42-2.38,4.49,0.14,5.05c3.65,1.26,8.42,0.56,8.42,1.54
		s-11.78,0.56-15.43,0.84c-1.54,1.96-1.26,4.63,0.56,5.75c3.51,0,24.69-3.65,43.77-4.91c19.08-1.26,36.75-0.28,37.17-0.28
		c-0.56,1.68-0.42,3.09-1.12,4.77c-0.42,1.4,0.28,2.52,1.26,2.67c0.7,0.14,3.93,1.26,9.4-4.49c1.12-1.12,2.67-2.67,3.51-3.93
		c0.56-0.84-0.28-1.12-2.1-2.1c-1.68-0.84-4.35-1.96-6.17-1.96c-2.24,0.14-1.96,0.28-3.93,1.26c-5.33,2.67-11.22,1.12-13.33,0.7
		c-3.79-0.7-6.87-2.24-10.38-3.93c-4.91-2.38-9.54-4.91-12.91-9.26c-0.98-1.26-3.09-4.07-4.35-8.98c-0.42-1.54-0.28-3.09-0.56-3.37
		c-0.84-0.56-0.56,4.49-0.56,5.05c0.28,3.51,0.98,6.87,1.96,10.24c0,0-1.54,1.26-4.35-4.77c-1.4-3.37-1.68-8.84,0-15.71
		c0.84-3.51,4.07-12.91,4.21-17.11l0.28-36.75c0,0-0.14-19.78,17.11-19.78c11.5,0.28,22.72,16.41,27.77,28.62
		c0,0,11.64,29.46,25.11,35.21c0,0,3.65,1.4,8.28,1.54c1.82,0,1.26,3.51-8.98,0c-12.34-4.21-27.49-35.21-27.49-35.21
		c-8.14-14.73-15.99-27.49-24.55-27.21c-4.91,0-8.42,3.09-10.8,6.45c-1.96,2.81-3.37,6.17-3.37,11.78l-0.42,31
		c2.67-2.52,4.63-6.03,12.62-6.03c1.12,0,2.38,0.14,3.51,0.56c20.2,5.89,27.91,21.46,36.75,32.96
		c8.28,11.08,27.07,14.45,34.23,14.31c0.84,0,3.79,1.26,3.09,1.54c-5.33,1.82-30.58-0.42-30.16-0.28
		c-25.67-1.54-21.18-39.56-46.85-45.87c-2.52-0.7-5.75-1.26-8.7,2.95c4.49,24.69,15.85,32.26,22.02,35.77
		c14.45,6.45,36.19,15.57,57.23,16.13c16.83,0.42,25.81-10.94,25.53-9.54c-0.56,3.09-1.4,12.76,1.54,13.05
		c2.67,0.28,37.59,1.68,37.73,1.68c2.67,0,2.81-5.47,0.56-5.61c-2.1-0.14-20.2,0.98-20.2,0s10.24-1.96,11.92-2.1
		C349.98,399.64,349.56,393.47,347.88,393.89 M313.09,399.36c-3.79,3.09-10.52,6.87-23.99,6.31c-10.1-0.42-52.46-14.17-62-19.5
		c-2.95-1.68-6.87-4.21-10.52-8.84c-2.81-3.65-7.86-17.39-9.4-21.18c0,5.33,0.7,10.94,1.54,16.55c1.54,11.5,8.84,23.71,21.18,27.35
		c2.1,0.56,5.47,2.38,13.61-0.14c2.38-0.7,3.79-1.96,6.31-1.96c5.47,0,11.36,3.93,16.27,5.89c2.52,0.98,4.77,1.96,7.29,2.52
		c2.81,0.7,9.82,2.38,18.24,2.38C301.87,408.9,309.44,405.11,313.09,399.36 M189.79,306.08c-0.7-1.12-6.17,0.14-10.52,0.14
		c-3.23-0.14-10.24-2.52-9.96,3.79l1.54,86.13l0.14,0.14c3.23,0.7,6.31,1.12,8.84,1.12c4.35,0,7.43-0.7,8.7-0.98
		c0.14-7.43,1.96-84.87,1.96-85.71C190.63,309.3,191.05,307.2,189.79,306.08 M168.05,295.14c0.14,6.45,7.15,8.14,12.06,7.72
		c4.49-0.42,6.73-0.98,8.7-3.93c1.82-3.09,1.96-10.8-5.05-13.33c-2.1-0.84-4.91-0.42-6.87-0.42
		C174.5,285.32,167.91,287.56,168.05,295.14 M200.45,280.83c-1.54-1.68-5.19-1.26-8.28-0.28c-1.26,1.82-1.82,4.63-0.56,7.86
		c2.24,4.77,5.75,9.4,6.73,6.03C192.88,285.04,195.68,281.39,200.45,280.83 M222.9,282.51c0.42-0.7,2.1-1.54,1.54-2.1
		c-1.26-1.12-3.09,0.98-4.21,2.1c-1.26,1.12-2.67,2.24-4.21,3.23c-0.28,0.14-2.81,1.68-2.67,0.7c1.82-1.4,3.65-2.67,5.19-4.35
		c1.12-1.26,3.09-2.38,4.49-3.51c0.7-0.56,0.56-1.4-0.98-1.12c-0.98,0.14-1.26,0.56-1.54,0.7c-1.68,0.98-2.81,2.24-4.21,3.37
		c-1.12,0.98-2.38,1.82-3.65,2.52c-0.7,0.42-1.82,1.26-2.67,1.12c-1.82-0.28,1.96-2.38,2.52-2.67c1.12-0.84,2.1-1.68,3.23-2.38
		c0.84-0.7,1.54-1.54,2.52-2.1c0.42-0.28,1.82-0.56,1.68-1.26c-0.14-0.7-1.4-0.56-1.82-0.42c-1.68,0.28-2.95,0.98-4.35,2.1
		c-2.81,2.1-5.75,2.81-8.42,4.49c-0.84-0.42,2.24-1.96,2.52-4.07c0.28-1.26,0-2.81-1.26-2.38c-0.56,0.14-0.7,0.56-0.84,1.12
		c-0.28,0.84-0.84,1.12-1.54,1.68c-1.12,0.98-2.24,2.1-3.37,2.95c-3.93,2.67-2.24,8.14,1.82,7.57c3.23-0.42,8,1.12,12.76-0.7
		c3.79-1.54,6.17-2.95,6.45-3.37c0.42-0.42,0.84-1.54,1.4-2.24C223.6,283.07,223.18,282.65,222.9,282.51 M344.37,292.47
		c0-0.56,0-1.12-0.14-1.82c-0.84-4.91-4.91-8.14-11.08-8.14c-6.03,0-11.08,4.77-11.08,9.54c0,4.35,1.12,6.17,2.81,7.15
		c1.68,0.98,4.35,1.12,7.43,1.12c0.28,0,0.56,0,0.84,0c2.81,0,5.75-0.56,7.86-1.68C343.11,297.38,344.37,295.56,344.37,292.47
		 M325.3,392.77c1.26,0.28,4.77,1.12,8.42,1.12c3.23,0,6.31,0.14,10.38-0.98c0,0,0,0.56,0-0.7s-1.68-2.1-1.68-2.1
		s1.4-81.92,1.4-82.62c0-2.52,0.14-5.19-1.68-4.91c-0.28,0-6.03,0.98-8.28,0.98c-3.51,0-6.03-0.56-7.43-0.7
		c-1.82-0.28-2.52,0.14-2.52,0.98S325.3,390.52,325.3,392.77 M340.59,257.12c-0.14,1.82-0.84,3.65-1.12,5.47
		c-0.28,2.38,0.28,2.67,1.68,4.35c2.1,2.81,3.65,6.73,3.65,6.73s2.1-8,2.67-10.8c0.14-0.42,0.14-0.84,0.14-1.26
		c0-4.35-2.81-12.62-3.51-14.73c-1.54,0.84-2.52,1.12-4.21,1.12c0.14,2.24,0.7,4.35,0.7,6.59
		C340.73,255.44,340.73,256.28,340.59,257.12 M169.03,281.95c13.89-3.37,27.77-8.14,38.01-8.14c32.12,0,47.27,16.27,54.43,23.57
		c0.98,1.12,5.05,0.98,5.75,0.14c0.56-0.42,1.54-2.52,4.35-4.91c2.38-2.1,29.32-25.67,63.82-25.81c0.98,0,1.4,1.96,1.4,1.96
		s-2.81,0-3.51,0c-34.51,0.98-60.04,25.39-62.28,27.63c-0.28,0.14,40.12-20.06,73.5-20.06l-1.96-3.93c0-0.14-4.21-7.43-6.17-8.84
		c-0.28-0.28-0.42-0.28-0.42-0.28c-37.73,0-68.73,23.57-69.3,23.85c-1.4,1.12-2.1,0.7-2.81,0c-0.28-0.28-17.25-19.22-40.68-26.09
		c-8.14-1.96-21.6-4.77-32.54-5.05c-6.03-0.14-8.98,2.67-9.96,4.07C180.53,260.77,168.61,282.09,169.03,281.95 M194.28,254.04
		c3.93,0,25.39,0.84,47.41,13.19c-13.75-10.66-48.96-31.98-49.1-32.12C192.6,235.24,191.61,243.09,194.28,254.04 M201.15,236.64
		c9.82,5.89,32.4,21.6,49.38,35.21l0.14-0.14c0.14-0.28,0.28-0.84,0.56-1.4c0.42-1.12,0.7-2.67,0.98-4.07
		c0.42-1.68,0.7-3.37,0.84-4.35c-4.49-0.42-8.84-2.1-10.94-4.21c-0.42-0.56-0.56-1.26-0.7-2.1c-0.14-0.84-0.28-1.96-0.28-3.37
		c-0.14-2.1-0.14-4.63-0.28-7.43c0,0,0-3.09-0.7-5.33c-0.7-2.1-6.87-5.05-9.96-5.75c-1.82-0.28-2.81-0.7-4.21-1.82
		c-0.42-0.28-0.42-0.28-0.7-0.28c-0.14,0-0.56,0-1.12,0c-0.28,0-0.7,0-1.12-0.14c-2.24-0.42-5.33-2.67-7.15-4.21
		c-1.26-1.12-3.09-2.81-4.49-4.07c-0.28,0.42-0.7,0.84-1.12,1.26c-1.68,1.54-2.38,5.05-4.35,7.15
		C204.52,233.56,201.85,234.96,201.15,236.64 M206.76,126.39l0.84-0.84c0,0,1.54-1.68,3.09-1.68h0.42c0.7,0.14,1.4,0.56,1.96,0.98
		c0.84,0.56,1.68,1.12,2.81,1.12c0.28,0,0.56,0,0.84-0.14c1.12-0.42,1.68-1.26,2.1-2.1c0.42-0.7,0.84-1.26,1.54-1.96
		c0.28-0.28,0.56-0.42,0.98-0.42c0.7,0,1.54,0.56,2.38,1.26c0.56,0.42,1.12,0.84,1.54,0.98c0.7,0.28,1.54,0.42,2.24,0.42
		c2.95,0,5.61-1.82,6.87-2.81c0.7-0.7,0.7-1.4,0.56-1.68c-0.28-0.84-1.54-1.68-2.38-1.68c-0.28,0-0.56,0.28-0.84,0.42
		c-0.56,0.42-1.4,1.12-3.09,1.12s-3.79-0.7-6.45-2.1c-0.28-0.14-0.7-0.28-0.98-0.28c-1.26,0-2.38,1.12-3.37,2.24l-0.56,0.7
		c-0.42,0.42-0.7,0.7-0.84,0.98c-0.42,0.56-0.56,0.7-0.98,0.7h-0.28c-0.14,0-0.42-0.14-0.7-0.14c-0.84-0.14-2.1-0.42-3.23-0.42
		c-0.98,0-1.68,0.14-2.24,0.42c-1.96,0.98-2.1,3.51-2.1,3.51L206.76,126.39z M213.08,106.47c1.4,1.82,2.81,2.67,4.21,2.67
		c1.12,0,2.1-0.7,2.95-1.12c0.42-0.28,0.84-0.56,1.12-0.56l0,0c0.7,0.42,0.98,1.26,1.4,2.24c0.42,0.84,0.84,1.82,1.54,2.67
		c0.84,0.98,1.82,1.4,2.95,1.4c0.7,0,1.54-0.14,2.24-0.42c0.7-0.14,1.4-0.42,1.96-0.42c0.7,0,1.26,0.28,1.82,0.84l0.56,0.28
		c0.56,0,1.12-0.7,1.54-1.26c0.56-0.84,0.56-1.82,0.28-2.38c-0.84-1.4-2.1-2.1-3.65-2.1c-0.98,0-2.1,0.28-2.95,0.56
		c-0.7,0.14-1.4,0.42-1.96,0.42l-0.56-0.14c-0.7-0.28-0.84-0.84-1.12-1.82c-0.28-1.12-0.56-2.38-2.1-3.09
		c-0.28-0.14-0.7-0.28-1.12-0.28c-0.84,0-1.68,0.42-2.52,0.98c-0.84,0.42-1.68,0.98-2.67,0.98c-0.56,0-1.26-0.14-1.82-0.56
		c-1.54-1.12-2.24-1.4-2.67-1.4l-0.56,0.28C211.81,104.5,211.95,104.92,213.08,106.47 M224.72,88.51c0.98,0.7,2.24,1.4,2.81,3.37
		c0.42,1.26,0.28,2.52,0.28,3.93c-0.14,1.68-0.14,3.37,0.84,4.63c0.98,1.12,2.1,1.26,3.23,1.26c1.68,0,3.37,0.14,5.05,3.23
		l0.14,0.28l0.42-0.14c0.84-0.28,1.26-0.84,1.4-1.4c0.28-1.26-0.7-2.52-1.4-3.23c-0.98-0.98-1.54-1.4-3.79-2.38l-0.98-0.42
		c-1.4-0.7-1.4-1.12-1.26-2.24c0.14-1.12,0.42-2.95-1.12-5.89c-0.98-1.96-2.52-2.38-3.93-2.81c-1.12-0.28-2.1-0.7-2.81-1.82
		l-0.56-0.98l-0.14,1.12C222.33,87.11,223.46,87.81,224.72,88.51 M241.27,88.09c0.56,0.14,1.26,0.42,1.26,0.56
		c0.14,0.7-0.42,1.54-0.84,2.38c-0.42,0.84-0.98,1.82-1.26,2.95c-0.28,1.26,0.56,1.96,1.4,2.67c0.98,0.7,1.82,1.54,1.54,3.37
		l0.14,0.56c0.42,0.42,1.4,0.7,2.1,0.7c1.12,0,1.82-0.42,2.1-1.12c1.26-3.23-0.42-4.07-1.68-4.77c-0.7-0.42-1.26-0.7-1.4-1.26
		c-0.28-0.84,0.28-1.82,0.84-2.95c0.7-1.26,1.4-2.81,0.98-4.35c-0.28-1.68-1.96-2.24-3.37-2.67c-1.26-0.42-2.38-0.84-2.67-1.82
		c-0.42-1.82,0.56-3.65,0.84-4.49c0.28-0.42,0.28-0.7,0.14-0.84l-0.14-0.28h-0.28c-0.56,0-2.52,1.12-3.51,4.77
		C236.5,86.69,239.45,87.53,241.27,88.09 M257.12,75.19c0,1.54-1.26,2.67-2.67,3.65c-1.54,1.26-3.09,2.52-3.09,4.63
		c0,2.67,0.98,3.09,2.1,3.37c0.7,0.14,1.26,0.28,1.26,1.96c0,1.12-0.42,2.1-0.98,3.23c-0.56,1.26-1.12,2.38-1.12,3.93
		c0.14,2.38,1.68,4.49,4.49,5.75l0.42,0.14l0.14-0.42c0.42-0.7,0-1.54-0.28-2.24l-0.28-0.7c-0.28-0.98-0.42-2.1-0.42-3.23
		c0-1.68,0.56-2.52,1.12-3.23c0.56-0.84,1.26-1.82,1.26-3.51c0-1.96-1.26-2.81-2.24-3.51c-0.84-0.56-1.4-0.98-1.4-1.82
		c0-0.7,0.7-1.26,1.54-1.96c1.68-1.54,3.93-3.65,2.24-8c-2.38-4.35-5.61-5.19-6.31-5.19h0.28l-0.28,0.14v0.28
		c0,0.28,0,0.42,0.56,0.84C254.32,70.14,257.12,72.52,257.12,75.19 M260.35,100.44c0.28,0.84,0.98,1.26,1.82,1.26
		c0.42,0,0.84-0.14,1.26-0.42c1.26-0.7,1.26-2.24,1.26-3.51c0-0.42,0-0.84,0.14-1.26c0.14-0.84,0.98-1.4,1.82-2.1
		c1.26-0.98,2.52-1.96,2.38-3.79c-0.14-1.4-0.7-2.24-0.98-2.81c-0.42-0.7-0.56-1.12-0.56-1.96c0-0.28,0.84-0.28,1.68-0.42
		c1.4-0.14,3.09-0.14,4.21-1.54c0.84-0.98,0.98-2.67,0.56-4.77c-0.98-4.35-4.07-5.89-4.63-5.89h-0.28l-0.14,0.28
		c-0.14,0.28,0,0.42,0.28,0.98c0.7,0.98,2.24,3.65,1.82,5.75c-0.28,1.12-1.26,1.26-3.09,1.4c-1.68,0.14-3.65,0.42-4.07,2.38
		c-0.28,1.82,0.14,3.09,0.56,4.21c0.42,0.98,0.7,1.82,0.42,2.81c-0.14,0.7-0.84,1.4-1.68,2.1
		C261.47,94.68,259.37,96.79,260.35,100.44 M276.62,94.83l-0.14,0.28c-0.14,0.28-0.98,0.84-1.82,1.4c-2.81,2.1-4.77,3.79-4.77,5.05
		c0,0.42,0.14,0.7,0.56,0.84c0.28,0.14,0.7,0.28,1.26,0.28c0.98,0,2.1-0.28,2.67-0.56c0.7-0.42,0.98-0.98,1.26-1.54
		c0.28-0.56,0.56-0.98,0.98-1.26c0.28-0.14,0.56-0.28,0.84-0.42c1.12-0.56,2.67-1.4,2.81-2.95c0.14-0.84-0.28-2.1-0.7-3.51
		c-0.28-0.98-0.84-2.52-0.7-2.81c0.56-0.42,1.26-0.42,1.96-0.42c0.98,0,2.24-0.14,3.09-1.26c0.56-0.7,0.7-1.96,0.7-2.95
		c0-0.42,0.14-0.84,0.14-1.26c0.14-0.42,0.14-0.98,0.28-1.4c0.14-0.98,0.28-1.96,0.7-2.95l0.14-0.28l-0.28-0.42h-0.28
		c-0.14,0-0.28,0-1.12,0.98c-0.7,0.98-1.26,1.96-1.68,2.95c-0.14,0.42-0.28,0.7-0.28,1.12c-0.28,1.26-0.56,2.38-1.82,2.81
		c-0.42,0.14-0.98,0.14-1.54,0.28c-0.98,0-2.1,0.14-2.95,1.26c-0.98,1.4-0.42,2.81,0.14,4.07C276.48,93,276.9,93.98,276.62,94.83
		 M286.02,102.12c-0.28,0.28-0.56,0.7-0.84,0.98c-0.42,0.42-0.84,0.56-1.4,0.7c-0.28,0-0.56,0-0.7,0h-0.98c-0.7,0-1.4,0-2.1,0.56
		c-0.84,0.56-1.4,1.68-1.26,2.52c0.14,0.7,0.56,1.26,1.26,1.4c0.42,0.14,0.98,0.14,1.4,0.14c1.54,0,3.09-0.7,4.63-2.1
		c0.28-0.28,0.7-0.7,0.98-1.12c0.98-1.12,1.82-2.24,3.23-2.24c0.42,0,0.84,0,1.26,0.14c0.42,0,0.98,0.14,1.4,0.14h0.28
		c0.98,0,4.91-0.7,5.05-2.81l-0.84-0.14c0,0-0.14,0.28-1.4,0.28c-1.4,0-3.23-0.28-4.63-0.42c-0.84-0.14-1.54-0.28-1.96-0.28l0,0
		C287.7,100.16,286.86,101.14,286.02,102.12 M301.87,113.06c-1.4,0-2.81,0.56-3.65,1.12c-0.56,0.28-0.98,0.84-1.4,1.26
		c-0.7,0.7-1.4,1.4-2.24,1.54l-0.56-0.28c-0.28-0.14-0.56-0.42-1.12-0.42h-0.42v0.42c-0.14,0.84,1.54,1.68,2.24,1.96
		c0.42,0.14,0.7,0.14,1.12,0.14c3.09,0,4.77-3.65,8-3.65c0.42,0,0.7,0,1.12,0.14l1.26,0.42l-0.7-0.98
		C304.53,113.62,303.27,113.06,301.87,113.06 M235.94,126.53c-0.14-0.42-0.28-1.54-1.68-1.54h-0.56c-0.98,0.14-1.96,0.84-2.81,1.4
		c-0.56,0.42-1.12,0.7-1.54,0.84c-0.28,0-0.56,0.14-0.84,0.14c-0.56,0-1.12-0.14-1.68-0.14c-0.7-0.14-1.26-0.28-1.96-0.28
		c-0.84,0-1.54,0.14-2.24,0.56c-1.68,0.84-2.38,3.51-2.95,5.33c-0.28,0.84-0.42,1.68-0.7,1.96c-0.28,0.28-1.54,0.42-2.52,0.56
		c-1.54,0.14-3.23,0.28-3.93,1.12c-1.26,1.26-1.82,3.51-1.82,3.65l0.84,0.28c0-0.14,0.84-1.82,3.79-2.1c0.42,0,0.84-0.14,1.12-0.14
		c0.7,0,0.98,0.14,1.26,0.14c0.28,0.14,0.56,0.14,1.12,0.14c0.42,0,0.84,0,1.4-0.14c2.1-0.42,2.67-2.81,3.23-4.91
		c0.28-1.26,0.56-2.38,1.12-3.09c0.42-0.42,0.7-0.56,0.84-0.56c0.56,0,1.12,0.42,1.82,0.84c0.56,0.42,1.26,0.84,2.1,1.12
		c0.28,0.14,0.56,0.14,0.84,0.14c1.26,0,2.24-0.98,3.23-1.82c0.42-0.42,0.98-0.84,1.4-1.12
		C236.36,128.49,236.08,127.09,235.94,126.53 M236.78,138.45c-0.7,0.7-1.54,0.84-2.67,0.84h-0.42c-0.84,0-1.54,0-2.24,0.28
		c-1.12,0.42-1.4,1.26-1.82,2.38c-0.42,0.98-0.7,1.54-1.26,2.38l-0.42,0.56c-0.14,0.28,1.82,0,2.1-0.14
		c0.7-0.42,1.12-1.26,1.82-1.54c0.28-0.14,0.56-0.14,0.84-0.14h0.56h0.7c0.56,0,1.26,0,1.82-0.56c2.38-2.1,3.79-2.52,4.63-2.52
		c1.12,0,1.54,0.84,1.54,0.98l0.14,0.56l0.42-0.28c0.28-0.14,0.42-0.42,0.56-0.98c0.14-1.54-1.4-4.35-2.38-5.47
		c-0.7-0.7-1.26-0.98-1.68-0.98c-1.26,0-1.54,1.68-1.82,3.09C237.06,137.33,236.92,138.17,236.78,138.45 M270.87,177.45
		c-0.14-0.28-0.14-0.56-0.28-0.84c-0.98-3.09,0-5.75-1.26-8.98c-1.4-3.37-3.79-6.73-6.73-8.28c-2.95-1.54-3.09-1.96-5.61-3.93
		c-3.37-2.67-7.43-3.65-11.64-3.65c-5.05,0-8.84,2.24-13.19,4.63c-8.14,4.49-8.98,13.33-6.45,21.32c0.28,0.84,0.84,3.79,1.54,5.33
		c0.42,0.84,2.24,2.52,3.23,2.81c0-0.7-0.7-1.68-0.98-2.24c-0.28-0.84-0.42-1.54-0.42-2.38c0-0.84-0.14-1.54-0.42-2.24
		c-0.14-0.56,0.14-1.96-0.14-2.24c-0.56,0.14-1.12,1.12-1.68,1.12c-0.14-0.84,0.7-1.26,1.26-1.82c0.42-0.28,2.52-3.51,1.68-3.93
		c-0.28-0.14-1.12,0.42-1.54,0.56c-0.28,0-0.98,0.14-0.84-0.42c0.14-0.42,1.12-0.28,1.4-0.42c0.98-0.42,1.12-1.54,1.54-2.24
		c0.28-0.42,0.56-0.7,0.56-1.26c0-0.56,0-0.98,0.14-1.54c0.14-0.7,0.28-1.4,0.28-2.1c0-1.4,0-4.49,2.1-4.49
		c0.14,0.98-0.84,3.09-0.14,3.79c0.84,0.98,3.79-0.14,4.91-0.56c1.12-0.28,5.19-2.38,5.19-2.38c0.28-0.28,0.56-0.84,0.84-0.42
		c0.28,0.28,0.28,0.84,0,1.12c-0.28,0.28-0.56,0.56-0.98,0.84c-0.28,0.28-1.26,0.56-1.26,0.84c0.98,0.14,1.68-0.42,2.67-0.7
		c0.98-0.14,1.96,0.14,2.95-0.42c0.28-0.14,0.42-0.7,0.7-0.7c0.56,0.14,0.42,0.98,0.28,1.26c-0.42,0.7-1.68,0.42-2.1,1.12
		c1.12-0.14,2.81-0.28,3.79,0.28c0.84,0.42,1.54,1.26,2.52,1.26c0.42,0,0.7-0.28,1.26-0.42c0.56-0.14,1.26,0.14,1.82,0.42
		c0.56,0.28,0.98,0.56,1.68,0.42c0.42-0.14,1.12-0.56,1.54,0c0.84,1.54-2.1,1.4-2.67,1.54l-0.42,0.14c0,0.42,1.26,0.84,1.68,1.12
		s1.12,1.12,1.54,1.12c0.84,0,2.95,0.42,5.33-0.56c0.42-0.14,0.42,0.84,0.14,1.12c-0.42,0.56-1.12,0.84-1.54,0.7
		c-0.28,0-1.68,0.28-2.24,0.42c1.12,1.26,2.38,3.37,2.81,4.07c0.14,0.42,0.7,2.1,1.54,3.09c1.82,2.81,3.23,4.49,1.96,8.84
		C270.31,187.83,272.13,181.37,270.87,177.45 M263.43,187.27c0,9.54-5.47,19.22-11.5,19.22c-2.38,0-4.77-1.68-5.33-1.68
		c-0.56,0.14-1.4,0.98,1.54,2.52c2.95,1.68,6.73,2.81,9.4,2.81c5.89,0,10.38-3.79,11.36-4.91c0.56-0.7,0.84-1.26,1.26-1.96
		c0.84-1.4-1.96-0.42-2.38-0.14c-0.7,0.42-1.68,0.84-2.1,1.54c0.42-0.56-0.98,1.4-0.28-4.35c0.56-4.77,0.42-9.68-0.42-16.69
		c-0.14-1.54-1.68-3.37-2.1-4.91c-0.42-1.68-1.26-3.23-2.24-4.77c-0.42-0.56-0.84-1.26-1.26-1.82c-0.56-0.7-1.4-1.12-2.1-1.68
		c-1.12-0.84-2.24-1.54-3.37-2.52c-0.98-0.84-1.96-0.56-3.09-1.12c-1.12-0.7-1.54-1.12-2.95-1.12c-0.56,0-1.26,0-1.68-0.28
		c-0.7-0.42-0.56-0.42-1.4-0.28c-1.12,0.14-2.24,0.14-3.37,0c-1.96-0.28-4.07,0.56-6.03,0.98c-0.56,0.14-1.12,0.28-1.68,0.28
		c-0.7,0-0.84-0.28-1.26,0.42c-0.56,0.84-0.84,1.82-1.4,2.81c-0.84,1.26-0.7,2.24-0.84,3.65c-0.14,1.26-0.84,2.24-0.84,3.51
		c-0.14,1.26,0.28,2.38,0.42,3.51c0.14,1.12,0.28,2.38,0.56,3.37c0.14,0.42,0.28,1.12,0.7,1.54c0.56,0.42,0.42,0,0.84-0.56
		c0.84-1.12,2.1-1.82,3.37-2.24c0.84-0.28,3.37-0.98,4.07-0.28c1.26,1.26,2.38,2.52,3.23,4.21c0.42,0.84,1.12,2.67,0.84,3.65
		c-0.56-0.42-0.7-1.82-1.12-2.52c-0.56-1.4-1.54-3.09-3.09-3.79c-0.98-0.42-2.95,0-3.79,0.28c-1.26,0.42-2.81,1.12-3.23,2.38
		c0,0,1.96,3.37,3.93,5.75c1.54,1.96,3.23,3.79,4.21,4.91c2.95,3.09,7.29,4.49,10.52,4.49c11.08,0,11.22-14.03,11.22-14.03
		c0-0.84,0.14-1.82,0-2.67c0,0,0-0.98,0.42-0.98c0.56,0,0.56,1.68,0.56,1.68C263.43,186.42,263.43,187.27,263.43,187.27
		 M271.57,104.36c-2.95-0.98-7.72-0.14-13.89,3.23c0,0-3.23-4.77-10.66-4.35c0,0-10.94,0.7-9.96,13.47
		c0.7,10.8,20.06,28.9,20.06,28.9c0.56,0.7,1.26,0.56,1.82,0c0,0,16.83-15.71,19.08-28.9C278.58,113.06,277.88,106.75,271.57,104.36
		 M302.01,143.92c-1.4-0.42-2.52-0.42-3.65-0.56c-1.4,0-2.67-0.14-4.49-1.12c-0.28-0.14-0.56-0.28-0.7-0.56
		c-0.42-0.42-0.56-0.98-0.7-1.54c-0.28-1.12-0.56-2.24-3.09-3.09c-0.56-0.14-0.98-0.28-1.4-0.28c-1.4,0-2.38,0.7-3.23,1.26
		c-0.56,0.42-0.98,0.7-1.54,0.7h-0.28c-0.84-0.28-1.68-1.26-2.52-2.24c-1.12-1.4-2.38-2.81-3.93-2.81c-0.28,0-0.56,0-0.84,0.14
		c-0.7,0.28-1.4,0.84-1.54,1.54c-0.14,0.56-0.14,1.26,0.28,1.68c0.56,0.56,0.98,0.84,1.54,1.12c0.42,0.14,0.7,0.42,1.12,0.7
		c0.42,0.42,0.7,0.84,1.12,1.26c0.42,0.56,0.84,1.12,1.4,1.54c0.98,0.7,1.96,1.12,3.09,1.12c0.42,0,0.84,0,1.26-0.14
		c0.42-0.14,0.84-0.28,1.4-0.56c0.7-0.28,1.4-0.7,1.96-0.7l0.56,0.14c1.12,0.42,1.96,1.54,2.67,2.52c0.56,0.7,1.12,1.4,1.68,1.68
		c1.26,0.56,2.38,0.84,3.51,0.84c1.4,0,2.81-0.56,4.63-1.12c0.56-0.14,1.12-0.42,1.82-0.7l1.26-0.42L302.01,143.92z M279,126.25
		c-1.4,0.98-1.82,3.79-1.96,3.93l-0.14,0.84l0.7-0.42c0.7-0.42,1.54-0.56,2.38-0.56c0.7,0,1.4,0.14,2.24,0.28
		c0.98,0.14,1.96,0.28,3.09,0.28c0.56,0,1.12,0,1.82-0.14c1.12-0.14,1.82-1.12,2.38-1.96c0.56-0.7,0.98-1.4,1.68-1.54l0.7-0.14
		c0.7,0,1.4,0.56,2.1,1.4c0.84,1.12,2.24,1.54,4.07,1.54l0,0c1.4,0,2.95-0.28,4.35-0.56c0.98-0.28,1.96-0.42,2.81-0.42v-0.84
		c-0.28,0-0.56,0-0.84,0c-2.52,0-4.91-0.7-7.01-1.96c-0.42-0.28-0.7-0.56-1.12-0.98c-0.56-0.56-0.98-0.98-1.68-1.4
		c-0.56-0.14-0.98-0.28-1.54-0.28c-1.4,0-2.52,0.56-3.37,1.12c-0.28,0.14-0.56,0.42-0.84,0.56c-0.98,0.7-1.96,1.4-3.09,1.4
		l-0.7-0.14c-0.42-0.14-0.7-0.28-1.12-0.28c-0.84-0.28-1.82-0.56-2.67-0.56C280.69,125.4,279.85,125.69,279,126.25 M285.46,114.6
		c0.14-0.56,0-0.84,0.42-1.26c-1.54,0.28-2.1,1.54-3.23,2.52c-0.56,0.42-2.67,0.98-2.95,1.4l-0.14,0.28l0.14,0.14
		c0.28,0.7,0.98,1.4,2.52,1.4c1.4,0,3.37-0.56,5.61-1.82c0.84-0.42,1.82-1.54,2.81-1.68c0.98-0.28,2.1,0.14,3.09,0.28
		c0.14-1.96-2.24-2.81-3.93-2.81C288.26,112.78,286.86,113.48,285.46,114.6 M243.66,256.42L243.66,256.42
		c1.4,1.68,5.75,3.37,10.1,3.65c0.98,0,6.03-0.14,9.12-0.42c0.56,0,5.33-0.56,6.45-0.84c1.82-0.28,1.82-1.96,1.82-1.96
		c0.14-2.95,0.28-6.31,0.28-9.96c0-3.09-0.14-6.45-0.28-9.68c0,0-1.26-16.69-2.67-22.86c-0.14-0.56,0.84-1.12,1.4-1.26
		c0.28-0.14,0.42,0.28,0.56,0.84c0.14,0.7,0.28,1.4,0.42,2.1c3.23-1.96,7.72-7.01,8-8.28c0,0.28,0.28,0.56,0.14,0.98
		c-0.84,2.95-6.17,7.57-7.86,8.98c0.98,5.33,1.54,11.36,1.96,17.39c0.56-0.28,1.26-0.42,1.82-0.7l0.98-0.28h0.14
		c0,0,0.98-0.14,2.1-0.42c1.12-0.14,2.38-0.56,2.52-0.56c0.56-0.14,1.4-0.42,2.1-0.7c-0.28-0.98-0.84-2.38-1.68-4.21
		c-1.4-3.09-3.79-7.01-7.29-10.24c0,0-0.28-1.4,0-1.12c5.19,2.81,10.24,12.91,10.94,15.43c0.14,0.14,4.21-2.24,6.45-3.09
		c1.82-0.7,7.57-3.37,7.57-3.37s2.38-1.26,1.96-2.1c-0.28-0.56-1.12-1.68-1.68-2.52c-1.12-1.68-2.95-4.21-4.91-6.31
		c-3.93-4.07-9.26-8-13.47-8.84l-0.42-0.14c-1.68-1.12-4.49-2.81-5.05-3.09h-0.42c-0.42,0-0.98,0.42-1.26,0.7l-0.7,0.84
		c-0.84,0.84-1.68,1.82-2.1,2.24c-1.26,1.4-5.75,5.89-12.91,5.89c-3.23,0-7.29-1.26-10.66-3.09c-3.23-1.96-6.17-4.21-6.31-7.43
		v-0.14c-0.56,0-4.63,1.12-6.17,1.68c-5.47,2.24-19.5,9.12-22.3,16.27l0,0l-0.14,0.42l0.14,0.14c0.98,0.98,3.79,3.51,5.33,4.91
		c1.4,1.26,4.91,3.51,5.89,3.65h0.56c0.28,0,0.7,0,1.12-0.14h0.42c0.84-2.81,3.65-9.4,9.68-14.87c0.42-0.42,1.68-0.56,1.82,0
		c0,0-5.05,4.35-7.86,11.08c-0.84,1.96-1.54,3.65-1.82,4.49h0.14c1.12,0.84,1.68,0.98,3.51,1.26c1.68,0.28,5.19,0.84,6.03,0.98
		c1.96,0.42,3.65,2.81,3.93,1.4c0.14-6.87,0.42-13.33,0.7-16.55c-1.68-1.26-7.43-6.03-7.01-9.54c0.42,1.4,4.07,5.89,7.29,7.72
		c0.14-0.42,0.28-0.84,0.7-0.7c0.56,0.28,1.26,0.7,1.12,1.12c-0.14,1.68-0.98,24.55-0.98,26.51
		C242.81,249.27,243.09,255.58,243.66,256.42 M277.6,273.67c1.4-0.14,5.19-0.98,10.94-8.14c7.57-9.4,13.61-16.97,17.39-20.34
		c5.05-4.63-2.81-15.29-4.77-17.81c-0.28-0.28-2.24,1.68-3.79,1.4c-0.42,1.26-3.65,2.38-5.75,3.09c-1.26,0.42-2.95,1.4-3.79,1.82
		c0,0.14-0.56,1.54-2.1,1.96c-0.84,0.28-1.96-0.84-1.96-0.98c-0.7,0-1.12,0.14-2.38,0.56c-1.96,0.7-7.01,3.51-7.29,5.33
		c-0.28,1.82-0.84,6.59-0.98,16.13c0,1.82-0.7,3.51-3.79,3.93c-0.42,0.14-2.24,0.28-2.52,0.42c0.42,0.84,0.84,2.1,1.26,3.65
		c0.84,2.67,0.98,5.89,2.67,7.57c0.98,1.26,2.24,2.38,3.51,3.37c1.26,0.98,2.1,2.1,3.79,1.96c0.98-0.14,2.24-0.7,3.23-1.26
		c0.84-0.42,1.68-0.98,2.52-1.4c1.82-0.98,3.79-1.82,5.61-2.67c4.35-1.96,8.7-3.65,13.19-5.05c10.38-3.37,21.04-5.33,31.98-5.61
		c0.56,0,1.12,0,1.82,0c0.7,0,1.26,0.42,1.82,0.98v-0.42c0-1.68,0.14-4.07,0.42-6.87c0-0.28,0-0.56,0-0.84
		c0-2.52-2.52-6.17-4.21-9.68c-1.54-3.37-2.24-4.91-2.1-6.17c0.14-1.26,1.26-2.38-0.56-1.96c-1.4,0.28-2.67,1.12-3.79,1.68
		c-4.21,2.38-7.86,5.75-11.22,9.4c-4.35,4.63-8.42,9.4-12.34,14.45l-0.56,0.7c-0.28,0.42-1.54,1.96-1.82,1.12
		c-0.28-0.56,1.26-2.67,1.54-3.09c4.77-7.86,8.7-12.2,14.73-17.81c0.56-0.56,1.54-1.12,1.96-1.68c2.24-2.67-6.73,0.84-10.52,2.95
		c-8.28,4.77-25.67,34.51-33.81,30.3C275.22,274.52,276.62,273.81,277.6,273.67 M371.16,317.86c-0.28,0.42-0.56,1.4,0,1.96
		c0.56,0.56,1.12,0.14,1.68-0.28c1.82-1.12,4.21-1.12,6.31-1.54c1.82-0.28,4.35-0.56,5.33-2.24c0.14-0.42,1.68-5.75,2.38-5.47
		l-6.31-3.09c-0.42-0.14-3.79,5.33-4.35,6.03C376.36,315.9,372.15,316.18,371.16,317.86 M371.45,316.74
		c0.7-0.7,4.77-6.59,9.54-14.03l6.03-16.41c0.42-1.12,2.1-6.59,2.1-6.59c-4.35-0.84-11.78,7.72-13.89,15.43
		C372.43,303.83,371.73,313.37,371.45,316.74 M151.22,324.73c-1.96-0.14-2.81-0.28-7.86-0.98c-1.54-0.28-3.09-0.42-4.63-0.7
		c-1.4-0.28-2.81-0.84-4.35-0.7c0.7,1.68,0.98,2.95,0.84,4.77c0,0.7-0.84,2.95-0.56,3.37c0.42,0.98,4.35,0.14,5.19,0
		c2.52-0.56,4.91-2.1,6.73-2.1c0.84,0,2.81,0.14,4.63-0.28c1.26-0.28,5.75-0.42,6.31-1.82
		C158.23,324.73,156.41,325.72,151.22,324.73 M135.93,305.52c0.14-0.98,0.28-2.24-1.4-2.38c-2.38-0.14-5.19-1.68-7.15-3.09
		c-1.54-0.98-2.24-2.52-3.65-0.42c-1.12,1.54-1.82,3.37-2.81,5.05c-1.26,2.24-4.07,9.54-6.17,12.48c-1.12,1.54-2.67,4.07-3.23,5.75
		c-0.28,0.84,3.37-0.56,4.21-0.7c2.1-0.42,4.07-0.84,6.17-1.26c3.37-0.7,6.59-1.26,9.96-1.82
		C132.7,318.98,135.64,308.46,135.93,305.52 M132.84,326.98c0-0.14-0.28-2.95-1.4-4.35c-0.42-0.56-0.56-0.98-1.26-1.12
		c-0.84-0.14-1.82,0.14-2.52,0.28c-0.84,0.14-1.68,0.28-2.67,0.56c-2.1,0.42-4.07,0.84-6.03,1.4c-2.38,0.7-4.91,1.26-7.29,1.82
		c-2.1,0.56-4.35,0.84-6.17,2.1c-0.42,0.28-2.1,1.54-1.82,0.42c0.28-0.7,0.98-1.12,1.12-1.96c0.14-0.7-1.12-3.65-1.4-4.49
		c-0.56-1.54-0.28-6.59-0.84-7.43c-0.7-0.42-13.19,4.35-21.6,2.67c0.28,0.98,0.42,5.05,0.56,5.75c1.82,7.72,6.17,12.48,11.78,17.11
		c2.24,1.82,4.49,2.24,6.87,2.24c1.96,0,3.93-0.42,5.75-0.7c1.4-0.28,7.57-2.67,13.75-4.49c5.89-1.82,9.82-2.52,12.34-4.77
		C133.4,330.63,133.12,328.66,132.84,326.98 M106.61,289.24c1.12,0.7,2.38,1.82,3.65,2.24c0.28,0.14,0.56,0.14,0.84,0.14
		c1.12-0.14,1.54-1.4,2.52-2.1c0.98-0.84,2.24-0.7,1.54-2.1c-0.28-0.56-1.26-1.12-0.56-1.68c0.84-0.7,2.24,0.84,2.95,0.28
		c0.28-0.28,0.14-0.42,0.14-0.7c0.14-0.7,0.42-1.54,0.84-1.96c0.28-0.28,0.7,0,0.84,0c1.12,0.42,2.1,1.12,2.67,1.12
		c0,0,1.12-0.14,1.4-3.09c0.28-1.82,0.56-3.51,0.7-5.33c0.14-0.98,0.28-2.1,0.42-3.09c0-0.98-0.28-2.24-1.26-2.67
		c-1.4-0.7-7.15-1.12-7.15-1.68c0-0.42,0.28-0.84,0.7-0.84c0,0,0.7-0.14,1.54-0.14c1.68,0,4.35,0.14,6.17,1.54
		c0.14,0,1.4,1.12,1.4,0.56c0-0.28,0-0.56,0.14-0.7c0.56-1.26,0.84-2.95,0.28-4.35c-0.42-0.98-0.98-2.52-1.96-3.09
		c-0.7-0.42-1.68-0.28-2.52-0.42c-2.1-0.28-4.21-0.28-6.31,0.42c-1.68,0.56-2.24,1.4-3.51,2.67c-0.56,0.56-1.4,1.4-2.1,1.4
		c-0.98,0.14-1.4-0.42-2.1,0.56c-0.56,0.7-0.7,1.4-1.54,1.96c-0.84,0.56-1.96,0.84-3.09,0.84c-1.82-0.14-2.38-1.68-2.52-3.09
		s-1.26-2.81-2.81-1.82c-1.82,0.98-2.81,6.03-1.12,7.57c0.28,0.14,2.67,1.82,1.4,2.1c-1.4,0.28-2.24-1.68-3.79-1.54
		c-1.68,0.14-3.65,0.42-4.91,0.56c-1.82,0.28-1.82,0.28-3.51,1.26c-0.84,0.42-2.81,2.24-3.37,3.09c2.1,1.96,10.38,10.38,13.33,11.08
		c0.42,0.14,1.68-1.12,2.67-1.54C101.42,285.32,104.78,287.98,106.61,289.24 M87.95,271.29l1.68-0.84c0.98,0-0.42,1.4,0.42,1.26
		c1.12-0.14,3.37-0.7,4.49-0.98c1.54-0.28,1.26-0.14,0.98-1.54c-0.42-1.96-0.42-3.79,0.84-5.47c0.98-1.12,1.82-1.82,2.95-1.82
		c1.26,0,2.38,1.12,2.95,2.24c0.56,0.98,0.56,2.52,2.1,2.52s3.37-1.68,4.07-2.95c0.28-0.42,0.28-1.4,0.7-1.68
		c1.12-0.7,0.7,0.7,1.26,0.98c0.7,0.42,2.38-1.12,2.95-1.4c0.28-0.14,3.51-1.4,3.51-1.26c0-0.56,0-1.54,0.42-2.1
		c0.7-0.7,0.84,0,1.26,0.7c0.42,0.7,0.56,0.7,1.4,0.7c0.56,0,1.4,0.42,1.96,0.28c0.98-0.14,0.42-1.12,0.84-1.4
		c0.42-0.28,0.84,0.7,1.12,0.98c0.56,0.7,0.7,0.56,1.54,0.7c5.19,1.26,2.67-5.89,0.98-8.14c-2.24-3.23-5.61-6.03-9.12-7.72
		c-1.4-0.7-4.91-1.4-8.84-1.4c-2.1,0-2.67-0.42-4.77,0c-3.93,0.98-7.86,1.26-13.33,8.14c-1.54,1.96-2.38,5.47-2.95,7.72
		C86.41,263.01,89.07,267.22,87.95,271.29 M128.07,284.62h0.28c2.24-2.52,0-9.4-3.09-6.87c0.28,1.26,1.54,1.82,2.1,2.95
		C128.07,281.95,128.07,283.21,128.07,284.62 M130.17,271.85c-1.12-0.84-3.37-1.82-3.37-0.98c-0.42,1.68-0.56,2.67,0.84,3.65
		c0.84,0.7,2.1,0.98,2.67,1.82c0.42,0.7,0.7,1.82,0.84,2.52c0.42,2.1-0.28,5.05-1.54,6.73c-1.82,2.52-1.12,7.01-0.7,8.14
		c0.7,2.24-0.42,2.67-1.4,4.35c0.98,0.84,2.24,1.54,3.37,2.1c0.56,0.28,1.96,0.7,2.67,0.42c1.12-0.42,1.82-3.09,2.24-4.21
		c0.7-1.82,2.67-13.47,1.4-16.97C134.94,272.97,132.28,273.53,130.17,271.85 M448.88,256c0,7.57-0.42,15.01-1.4,22.44
		c-4.49-7.01-10.66-3.79-9.68-5.47c0.42-0.7,2.24-0.98,3.09-1.54c-0.7-2.1-2.67-5.19-5.05-4.07c2.95,1.96-6.59,6.17-11.22,10.38
		c-1.26,1.12-4.77,4.21-5.47,3.37c-2.52,0.84-4.35,8.7-5.89,12.76c-0.84,2.1-0.7,1.96-1.54,4.21c-0.56,1.68-1.68,4.49-2.1,7.01
		c-0.28,1.26,0.7,1.4,1.96,0.98c2.38-0.56,4.49-0.7,7.01-1.26c1.96-0.42,4.49-0.84,6.45-1.12l18.24-1.68
		c-0.7,2.95-1.54,6.03-2.38,8.98c0-6.03-1.82-6.31-1.82-6.31c-2.52-0.28-8.98-1.26-14.31,0.28c-1.96,0.56-1.4,5.19-1.96,6.87
		c-0.98,3.09-2.52,6.73-2.95,9.96c-0.14,0.56,0.98,1.54,0.7,1.96c-0.84,1.12-8.84-1.68-10.38-1.96c-3.79-0.7-8.98-1.96-12.91-2.1
		c-0.42,0-0.56,0.14-0.7,0.14c-0.14,0.28-0.14,0.56-0.14,1.54c-0.14,1.68-0.7,3.79-1.54,5.47c-0.56,1.12-1.68,1.96-0.14,2.81
		c1.12,0.7,2.38,1.12,3.65,1.54c2.81,1.26,26.09,8.7,27.49,8.56c1.68-0.14,2.81,0.14,3.79,0.28c-0.42,0.84-0.84,1.54-1.26,2.38
		c-0.42,0-0.84,0.14-1.54,0.28c-1.96,0.28-31-9.68-34.65-11.36c-6.45,0.56-5.75-2.52-14.31-4.35c0.56,0-4.21,0.14-5.61-0.28
		c-3.37-0.7-4.49-2.24-3.51-2.52l-17.81-2.95c0,0-0.7-0.14-0.84,0.7c-0.28,0.98-0.7,2.1-0.84,4.07c0,1.68,0.28,3.93,1.12,4.07
		c5.61,1.12,30.44,5.19,31.98,5.47c0.98,0.28,2.52,1.68,1.12,1.54c-1.4,0-16.41-1.26-18.38-1.54c-4.35-0.56-9.96,8.7-10.38,15.99
		c0,6.17-0.14,23.71-0.42,28.48c-0.14,4.49-0.84,7.01,1.26,8c5.19,0.42,12.76,9.82,24.41,15.01c-1.68,1.4-3.51,2.81-5.19,4.21
		l2.38-2.95c0,0-5.19-4.63-8.42-6.87c0,0.7,0.14,4.35-4.07,4.63c-4.35,0.28-4.91,4.63-4.91,4.63c-0.42,1.4,11.22,1.54,13.75,1.54
		c-32.54,24.97-73.22,39.84-117.41,39.84c-40.4,0-77.85-12.48-108.85-33.67c3.23-0.7,5.05-1.12,5.05-1.12
		c2.67-0.42,2.52-1.12,2.52-1.26c0-0.98-0.14-3.51-3.65-3.79c-1.82-0.28-11.36-0.98-11.36-0.98c-0.14-0.14,9.12-2.1,10.8-5.61
		c0.7-1.4,0.84-3.37,1.12-4.91c0.56-2.95,0.84-6.03,1.26-8.98c0.84-7.15,1.68-10.66,2.24-17.96c0.28-2.95,1.68-12.34,0.7-11.22
		c0-0.42-0.7,2.95-1.4,5.33c-0.84,2.95-1.54,6.03-2.38,8.84c-0.84,2.95-1.82,5.89-2.95,8.7c-2.1,5.75-4.77,11.22-8.42,16.13
		c-2.1,2.95-4.49,5.33-7.01,6.73c-1.12-0.84-2.1-1.82-3.09-2.67c2.67-0.98,5.33-3.23,7.86-6.59c3.37-4.35,6.31-10.38,8.84-16.27
		c4.63-11.08,7.72-22.16,8-23.71c3.65-12.62-2.52-15.01-7.15-14.73c-19.08,1.12-46.15,8.56-46.15,8c0.14-0.42,0.56-1.4,0.98-1.54
		c3.93-0.84,59.76-14.17,59.76-14.17s0.98-0.14,1.26-1.96c0.28-2.1,0.42-4.77,0.42-5.05c0-0.56-0.7-0.42-0.7-0.42
		s-19.36,5.61-22.02,6.17c-1.4,0.28-3.23,0.98-5.47,1.26c-0.7,0.14-2.52-0.14-2.67,0.14c-0.84,1.12-2.24,1.96-3.51,2.38
		c-2.38,0.84-22.16,6.59-23.71,7.15c-3.79,1.12-4.91,1.12-6.03,0.7l-0.42,5.89c0.28-0.14-6.31,1.96-10.66,3.51
		c-0.42-0.84-0.84-1.54-1.4-2.38c6.17-3.23,6.03-8.42,2.52-11.5c-4.35-3.51-10.94-8.56-12.62-19.08c-0.56-3.23-1.68-3.09-3.23-3.65
		c-0.84-0.14-1.4-0.14-1.82-0.28c-0.14-0.56-0.42-1.12-0.56-1.68c8.42-0.14,31.84-1.82,32.12-3.23c-1.26-4.21-1.26-13.05-6.31-17.67
		c-8.7-7.86-16.27-15.99-17.25-16.83c-1.82-0.28-8.42,3.65-6.45,4.63c1.26,0.7,5.19,0.98,5.75,2.67c-0.7,0.42-1.68-0.14-2.38-0.28
		c-3.37-0.7-8.42,2.1-11.5,5.61c-1.96-10.94-2.95-22.16-2.95-33.67c0-106.47,86.41-192.88,192.88-192.88
		C362.47,63.12,448.88,149.53,448.88,256 M400.9,266.8c0,0-0.42,0.28-0.98,0.56c-0.56,0.28-1.26,0.56-1.96,0.7
		c-0.14-0.14-0.56-0.7-1.12-1.12c0.7-0.84,1.4-1.96,2.24-2.52c1.12-0.7,2.38-0.7,2.38-0.7c0.42-0.14,0.7-0.7,0.56-1.12
		c-0.14-0.42-0.7-0.7-1.12-0.56l0,0c0,0-4.35,1.54-6.17,4.91c-0.28,0.42,0,0.98,0.42,1.12l0.42,0.14h0.14l0,0
		c0.42,0.28,0.7,0.56,0.98,0.84c0.14,0.14,0.42,0.42,0.84,0.56c0.56,0.84,1.4,1.26,2.1,1.12l0,0c0.42,0,0.56-0.14,0.7-0.28
		l0.28-0.28l1.68-2.52c0.28-0.42,0.14-0.84-0.14-1.12C401.74,266.66,401.32,266.66,400.9,266.8 M300.61,242.95
		c0-0.42-0.14-0.7-0.28-1.12c-0.7-0.98-3.79-2.95-4.07-2.81c-0.28,0.14,0.28,3.79,1.54,4.91
		C299.2,245.2,300.61,243.94,300.61,242.95 M371.45,342.83c-0.28-0.28-1.12-0.42-1.12,0c-0.42,2.24,13.61,13.47,19.92,17.11
		c4.49,2.38,9.54,4.63,10.1,12.48c0.28,3.09,0.98,6.87,1.82,9.54c4.77-5.47,9.12-11.22,13.19-17.11
		C403.85,363.73,388.84,358.54,371.45,342.83 M386.31,393.33c-13.61-5.19-24.27-39.7-28.2-42.22c-3.93-2.52,17.39,46.01,21.32,44.33
		c2.95-1.26,5.75-0.7,8.14,1.68c0.84-0.84,1.82-1.68,2.67-2.52C388.98,394.17,387.72,393.89,386.31,393.33 M116.99,386.88
		c0.28-0.14,0.56-0.28,0.56-0.7c0.28-1.82,0.56-3.65,0.84-5.47c0.14-0.7,0.42-1.54,0.7-2.38c0.7-1.82,1.26-3.65,2.1-5.33
		c1.68-3.51,2.52-8.56,5.75-10.94c0.42-0.42,0.98-0.56,1.26-1.12c0.14-0.56,0-0.84-0.28-0.98c-0.14-0.14-0.56-0.14-0.84,0
		c-1.82,0.42-3.65,3.37-4.63,4.77c-0.7,0.98-4.21,5.75-4.49,5.89c-4.63,3.23-8.42,4.07-13.47,4.91c1.12,1.4,2.1,2.67,3.23,4.07
		c3.23,0,7.72,0,7.72,0c1.26,0,0.98,4.77,0.14,4.77c-0.28,0-1.96,0-3.65,0.14c0.98,1.12,2.1,2.38,3.23,3.51
		c0.28-0.14,0.56-0.42,0.7-0.42C116.57,387.02,116.99,387.02,116.99,386.88 M286.02,251.37c-0.28-1.4-3.51-4.91-3.93-4.63
		c-0.42,0.28,0.14,5.19,0.7,5.89C284.05,254.32,286.3,252.77,286.02,251.37 M277.32,257.4c0-0.42,0-0.98,0.14-1.54l0.14-1.54
		l0.84,1.26c0,0.14,1.96,2.81,2.1,4.49c0,0.28-0.14,0.84-0.56,0.98l-0.56,0.14C278.16,261.05,277.32,259.65,277.32,257.4"/>
	<path id="XMLID_77_" class="st2" d="M256,456.59c-110.82,0-200.59-89.78-200.59-200.59S145.18,55.41,256,55.41
		S456.59,145.18,456.59,256S366.82,456.59,256,456.59 M256,0C114.6,0,0,114.6,0,256s114.6,256,256,256s256-114.6,256-256
		S397.4,0,256,0"/>
	<polygon id="XMLID_78_" class="st0" points="86.55,432.89 77.85,423.49 78.69,422.79 81.36,425.59 94.12,402.31 94.12,402.31 
		70.14,413.39 73.22,416.75 72.38,417.46 65.79,410.44 66.63,409.74 69.16,412.27 100.86,397.54 101.7,398.52 84.87,429.38 
		87.39,432.04 	"/>
	<polygon id="XMLID_79_" class="st0" points="60.46,401.46 62.7,404.69 61.72,405.39 56.25,397.26 68.31,371.59 68.31,371.59 
		49.1,384.63 51.34,387.86 50.36,388.56 45.03,380.84 46.01,380.14 48.25,383.37 75.75,364.57 76.45,365.69 60.46,399.5 
		60.46,399.64 85.57,382.53 83.46,379.3 84.3,378.6 89.64,386.31 88.65,387.02 86.41,383.79 	"/>
	<polygon id="XMLID_80_" class="st0" points="66.07,348.02 72.38,360.08 71.4,360.64 69.3,356.72 41.66,371.45 43.63,375.23 
		42.64,375.79 36.19,363.87 37.31,363.31 39.28,367.1 67.05,352.51 64.95,348.58 	"/>
	<polygon id="XMLID_81_" class="st0" points="33.81,359.8 29.18,347.88 30.3,347.46 31.7,351.11 52.04,333.99 52.04,333.99 
		25.53,335.68 27.21,339.88 26.23,340.3 22.72,331.33 23.71,330.91 25.11,334.27 59.9,332.03 60.46,333.15 33.53,356.02 
		34.93,359.38 	"/>
	<path id="XMLID_82_" class="st0" d="M54.01,318.84l-1.12,0.28l-0.98-4.35l-30.44,7.43l0.98,4.35l-1.12,0.28l-6.03-24.83l8-1.96
		l0.28,1.12c-5.61,2.24-5.89,5.47-4.91,9.96l1.54,6.31l14.17-3.37c-1.26-4.91-1.68-6.45-7.01-5.89l-0.28-1.12l12.34-2.95l0.28,1.12
		c-5.19,1.54-5.33,3.79-4.21,8.7l15.15-3.65l-1.4-5.89c-1.54-6.45-2.81-8.42-10.38-8l-0.28-1.26l9.26-1.54L54.01,318.84z"/>
	<path id="XMLID_85_" class="st0" d="M27.63,283.49l-0.28-2.67c-0.56-5.47-1.26-8.98-8.14-8.28c-4.91,0.42-6.17,2.67-5.75,7.57
		l0.42,4.77L27.63,283.49z M47.13,290.37l-1.12,0.14l-0.42-3.93l-31.14,3.09l0.42,3.93l-1.12,0.14l-1.4-14.87
		c-0.84-9.68,4.07-11.64,6.31-11.78c6.59-0.56,8.42,5.05,9.26,9.68h0.14c0.84-5.89,2.67-9.96,10.66-10.38
		c2.38-0.14,4.63-0.56,5.05-1.68c0.56-0.98,0.14-2.81-0.7-4.49l1.26-0.14c0.7,1.68,1.26,3.09,1.4,4.35
		c0.42,3.51-1.26,5.75-3.65,6.59c-0.84,0.28-4.91,0.98-7.86,1.68c-2.24,0.42-6.03,1.26-5.33,7.57l0.28,2.95l16.41-1.54l-0.42-3.93
		l1.12-0.14L47.13,290.37z"/>
	<path id="XMLID_86_" class="st0" d="M44.75,257.26v0.7l-8.7-0.28v-0.98c4.63-1.12,8.28-4.49,8.42-9.4c0.14-4.35-2.52-8.56-7.01-8.7
		c-2.95-0.14-4.35,0.56-6.03,4.35c-0.84,1.82-3.65,9.54-4.21,10.24c-1.96,2.81-5.05,3.93-7.86,3.79c-2.1-0.14-3.79-0.7-5.61-2.24
		c-1.96-1.54-3.37-4.07-3.23-8c0.14-2.38,1.68-5.61,2.52-6.59l-1.4-1.96v-0.7l7.86,0.28v0.98c-4.21,0.98-7.57,3.79-7.72,8.28
		c-0.14,3.37,2.1,7.29,5.89,7.43c8.42,0.28,3.65-18.94,17.39-18.52c6.87,0.28,11.08,4.77,10.8,11.36c-0.14,2.81-0.98,5.61-3.09,7.57
		L44.75,257.26z"/>
	<polygon id="XMLID_87_" class="st0" points="47.55,220.51 45.73,233.98 44.61,233.84 45.17,229.49 14.17,225.42 13.47,229.63 
		12.34,229.49 14.17,216.02 15.29,216.16 14.73,220.51 45.87,224.72 46.43,220.37 	"/>
	<path id="XMLID_88_" class="st0" d="M48.82,213.5l-1.12-0.28l0.98-4.07l-30.58-7.15l-0.84,3.37c-1.12,4.63,2.24,6.03,6.87,8
		l-0.28,1.26l-9.4-2.81l5.89-25.25l9.54,1.82l-0.28,1.26c-4.77-0.56-8.84,0.14-10.1,5.33l-0.56,2.1l30.58,7.15l0.98-4.07l1.12,0.28
		L48.82,213.5z"/>
	<path id="XMLID_91_" class="st0" d="M45.87,175.34l-14.31-0.98v0.14l11.22,8.84L45.87,175.34z M52.32,197.08l-1.12-0.42l1.4-3.79
		l-27.21-21.74l0.7-1.82l34.51,1.68l1.26-3.37l1.12,0.42l-4.35,11.92l-1.12-0.42l1.4-3.79l-11.64-0.56l-3.37,8.98l9.12,7.15
		l1.54-4.07l1.12,0.42L52.32,197.08z"/>
	<path id="XMLID_92_" class="st0" d="M64.39,166.22l-0.28,0.56l-7.72-4.07l0.42-0.84c4.77,0.98,9.4-0.56,11.78-4.91
		c1.96-3.79,1.4-8.84-2.52-10.94c-2.67-1.4-4.21-1.4-7.29,1.26c-1.54,1.26-7.43,7.01-8.14,7.43c-2.95,1.68-6.17,1.4-8.7,0
		c-1.82-0.98-3.09-2.24-4.07-4.49c-0.98-2.24-1.26-5.19,0.42-8.56c1.12-2.1,3.93-4.21,5.05-4.77l-0.42-2.38l0.28-0.56l7.01,3.65
		l-0.42,0.84c-4.21-0.98-8.56,0.14-10.66,4.07c-1.54,3.09-1.26,7.43,2.1,9.26c7.43,3.93,11.5-15.57,23.71-9.12
		c6.17,3.23,7.86,9.12,4.77,14.87c-1.26,2.52-3.37,4.63-6.03,5.47L64.39,166.22z"/>
	<path id="XMLID_93_" class="st0" d="M82.34,95.39l-0.7,0.84c-4.35-2.24-8.98-2.67-12.34,1.4c-2.1,2.52-1.96,5.75-1.12,7.72
		c1.54,3.93,7.01,8.56,9.12,10.38c6.59,5.61,12.2,8.7,17.25,2.67c3.09-3.79,1.96-8.7-0.56-12.62l0.84-0.98l7.01,5.89l-0.84,0.98
		l-2.52-0.28c0,3.09-1.12,5.75-2.95,7.86c-6.03,7.15-15.57,6.03-23-0.28c-7.57-6.31-8.42-16.97-3.93-22.44
		c1.96-2.38,3.93-3.23,6.73-3.93v-2.24l0.42-0.56L82.34,95.39z"/>
	<path id="XMLID_96_" class="st0" d="M107.45,86.69l-12.2-7.43l-0.14,0.14L101,92.58L107.45,86.69z M102.96,108.99l-0.84-0.84
		l2.95-2.67L91.18,73.64l1.4-1.26l29.74,17.53l2.67-2.38l0.84,0.84l-9.4,8.56l-0.7-0.84l3.09-2.81l-9.96-5.89l-7.15,6.45l4.77,10.66
		l3.23-2.95l0.84,0.84L102.96,108.99z"/>
	<path id="XMLID_97_" class="st0" d="M128.91,86.69l-0.7-0.98l3.37-2.38l-18.1-25.67l-2.81,1.96c-3.93,2.81-2.24,6.03-0.14,10.66
		l-1.12,0.7l-5.19-8.28l21.18-15.01l5.89,7.72l-1.12,0.7c-3.23-3.65-6.73-5.75-11.08-2.67l-1.82,1.26l18.1,25.67l3.37-2.38l0.7,0.98
		L128.91,86.69z"/>
	<polygon id="XMLID_98_" class="st0" points="158.37,47.83 151.78,34.93 148.27,36.75 147.85,35.77 159.21,29.88 159.63,31 
		156.12,32.68 170.43,60.74 173.94,58.92 174.5,59.9 163.14,65.65 162.58,64.67 166.08,62.84 159.07,49.1 146.17,55.69 
		153.18,69.44 156.69,67.75 157.11,68.73 145.74,74.49 145.32,73.5 148.83,71.68 134.52,43.77 131.02,45.59 130.45,44.61 
		141.82,38.72 142.38,39.84 138.87,41.52 145.46,54.43 	"/>
	<path id="XMLID_101_" class="st0" d="M193.3,35.91c-3.23-9.96-6.73-15.15-13.47-12.91c-6.59,2.1-6.45,8.42-3.23,18.38
		c3.23,9.82,6.73,15.15,13.47,12.91C196.66,52.18,196.52,45.87,193.3,35.91 M171.27,43.2c-2.81-8.56,0-18.52,8.28-21.18
		s16.41,3.65,19.22,12.2c2.81,8.42,0,18.52-8.28,21.32C182.22,58.07,173.94,51.62,171.27,43.2"/>
	<path id="XMLID_102_" class="st0" d="M206.06,49.8l-0.14-1.12l4.07-0.7l-5.61-30.86l-4.07,0.7l-0.28-1.12l13.47-2.38l0.14,1.12
		l-4.63,0.84l5.61,30.86l8.84-1.54c4.07-0.7,5.05-6.03,5.19-9.4l0.98-0.14l1.12,9.4L206.06,49.8z"/>
	<polygon id="XMLID_103_" class="st0" points="245.2,44.47 231.73,45.59 231.59,44.33 235.94,44.05 233.42,12.76 229.07,13.05 
		228.93,11.92 242.53,10.8 242.53,11.92 238.33,12.34 240.85,43.63 245.2,43.2 	"/>
	<path id="XMLID_104_" class="st0" d="M272.41,19.78h-1.12c-0.98-4.77-3.51-8.7-8.84-8.7c-3.23,0-5.75,2.1-6.73,3.93
		c-2.1,3.65-2.24,10.8-2.38,13.61c-0.14,8.7,0.7,15.01,8.7,15.15c4.91,0.14,8-3.93,9.4-8.28h1.26l-0.14,9.12h-1.4l-1.4-2.1
		c-2.38,1.96-5.19,2.67-8,2.67c-9.26-0.14-14.45-8.42-14.17-18.1c0.14-9.96,8-17.25,15.15-17.11c3.09,0,5.05,1.12,7.29,2.81
		l1.68-1.54h0.7L272.41,19.78z"/>
	<path id="XMLID_107_" class="st0" d="M295,33.95l-1.82-14.17h-0.14l-6.59,12.76L295,33.95z M274.8,44.47l0.14-1.12l3.93,0.7
		L295,13.19l1.96,0.28l4.91,34.23l3.51,0.56l-0.14,1.12l-12.48-2.1l0.14-1.12l4.07,0.7l-1.68-11.5l-9.54-1.54l-5.33,10.38l4.35,0.7
		l-0.14,1.12L274.8,44.47z"/>
	<path id="XMLID_108_" class="st0" d="M325.44,55.83l-0.7-0.28l3.23-8l0.84,0.42c-0.42,4.77,1.4,9.4,6.03,11.22
		c4.07,1.68,8.98,0.56,10.66-3.65c1.12-2.81,0.98-4.35-2.1-7.15c-1.4-1.4-7.72-6.59-8.28-7.43c-1.96-2.81-1.96-6.03-0.84-8.7
		c0.7-1.96,1.96-3.37,4.07-4.63c2.1-1.26,5.05-1.82,8.56-0.42c2.1,0.84,4.63,3.51,5.33,4.49l2.38-0.7l0.7,0.28l-2.95,7.29
		l-0.98-0.42c0.56-4.35-0.98-8.42-5.19-10.1c-3.23-1.26-7.57-0.42-8.98,3.09c-3.09,7.72,16.69,9.96,11.5,22.58
		c-2.52,6.45-8.14,8.84-14.31,6.31c-2.67-1.12-4.91-2.81-6.17-5.47L325.44,55.83z"/>
	<path id="XMLID_111_" class="st0" d="M368.22,60.6l3.09-13.89h-0.14l-10.52,9.68L368.22,60.6z M345.78,63.54l0.56-0.98l3.51,1.96
		l25.67-23.43l1.68,0.98l-7.15,33.81l3.09,1.68l-0.56,0.98l-11.08-6.17l0.56-0.98l3.51,1.96L367.94,62l-8.42-4.77l-8.56,7.86
		l3.79,2.1l-0.56,0.98L345.78,63.54z"/>
	<path id="XMLID_112_" class="st0" d="M406.93,73.78l-0.98-0.7c1.96-4.49,2.24-9.12-1.96-12.2c-2.52-1.96-5.89-1.68-7.86-0.7
		c-3.79,1.82-8.14,7.43-9.82,9.68c-5.19,6.87-8.14,12.62-1.68,17.39c3.93,2.95,8.84,1.54,12.48-1.26l0.98,0.7l-5.47,7.29l-1.12-0.84
		l0.14-2.52c-3.09,0.14-5.75-0.84-8-2.52c-7.43-5.61-6.73-15.29-0.98-23c6.03-8,16.55-9.26,22.3-5.05c2.38,1.82,3.37,3.79,4.35,6.59
		l2.24-0.14l0.56,0.42L406.93,73.78z"/>
	<path id="XMLID_115_" class="st0" d="M414.51,88.79l1.96,1.96c3.93,3.93,6.73,6.03,11.64,1.12c3.51-3.51,3.09-6.03-0.42-9.4
		l-3.37-3.37L414.51,88.79z M395.01,95.81l0.84-0.84l2.81,2.81l22.16-22.16l-2.81-2.81l0.84-0.84l10.52,10.52
		c6.87,6.87,4.21,11.5,2.67,13.05c-4.63,4.63-9.68,1.4-13.33-1.54h-0.14c3.09,5.19,4.35,9.4-1.68,14.73
		c-1.82,1.54-3.23,3.37-2.81,4.63c0.28,1.12,1.68,2.24,3.37,2.95l-0.84,0.84c-1.68-0.84-2.95-1.54-3.79-2.52
		c-2.52-2.52-2.67-5.33-1.4-7.43c0.42-0.84,3.09-3.93,5.05-6.31c1.4-1.82,3.79-4.77-0.7-9.26l-2.1-2.1l-11.64,11.64l2.81,2.81
		l-0.84,0.84L395.01,95.81z"/>
	<polygon id="XMLID_116_" class="st0" points="425.17,128.91 416.75,118.39 417.6,117.69 420.4,121.06 444.95,101.42 442.14,98.05 
		443.13,97.35 451.54,107.87 450.7,108.57 447.89,105.21 423.49,124.84 426.15,128.21 	"/>
	<path id="XMLID_117_" class="st0" d="M473.14,162.58l-0.56-0.98c3.79-3.09,6.03-7.01,3.79-11.78c-1.4-2.95-4.49-4.21-6.59-4.21
		c-4.21-0.14-10.66,2.95-13.19,4.07c-7.86,3.79-12.91,7.43-9.54,14.59c2.1,4.35,7.15,5.33,11.78,4.63l0.56,1.12l-8.28,4.07
		l-0.56-1.26l1.26-2.24c-2.81-1.26-4.77-3.37-6.03-5.89c-4.07-8.42,0.84-16.69,9.68-20.9c8.98-4.35,18.94-0.7,22.16,5.61
		c1.26,2.67,1.26,4.91,0.84,7.86l2.1,0.84l0.28,0.7L473.14,162.58z"/>
	<path id="XMLID_120_" class="st0" d="M475.81,194c9.96-3.23,15.15-6.73,13.05-13.33c-2.1-6.59-8.42-6.45-18.38-3.37
		c-9.96,3.23-15.15,6.73-13.05,13.33C459.54,197.37,465.85,197.23,475.81,194 M468.8,171.98c8.56-2.67,18.52,0.14,21.18,8.42
		s-3.79,16.41-12.34,19.22c-8.56,2.67-18.66-0.14-21.18-8.42C453.79,182.78,460.24,174.64,468.8,171.98"/>
	<path id="XMLID_123_" class="st0" d="M481.56,210.41l0.42,2.67c0.98,5.47,1.96,8.84,8.84,7.72c4.77-0.84,5.89-3.23,5.19-8
		l-0.84-4.77L481.56,210.41z M461.64,204.94l1.12-0.14l0.7,3.79l30.86-5.33l-0.7-3.79l1.12-0.14l2.52,14.59
		c1.68,9.54-3.09,11.78-5.33,12.2c-6.45,1.12-8.7-4.35-9.96-8.98h-0.14c-0.42,6.03-1.82,10.24-9.82,11.08
		c-2.38,0.28-4.63,0.98-4.91,2.1c-0.42,0.98,0.14,2.81,0.98,4.35l-1.26,0.28c-0.84-1.54-1.4-2.95-1.68-4.21
		c-0.7-3.51,0.84-5.89,3.09-6.87c0.84-0.42,4.77-1.4,7.72-2.24c2.24-0.7,5.89-1.68,4.77-8l-0.56-2.95l-16.27,2.81l0.7,3.93
		l-1.12,0.14L461.64,204.94z"/>
	<path id="XMLID_126_" class="st0" d="M468.23,245.62l0.14,4.91c0.14,5.89,3.23,7.72,5.47,8.7c2.38,0.98,6.73,1.12,11.64,0.98
		c7.15-0.14,14.45-0.98,14.31-11.36v-3.79L468.23,245.62z M499.52,240.15l-0.14-3.93h1.12l0.28,13.47
		c0.14,9.54-6.17,15.85-16.27,15.99c-5.89,0.14-10.24-2.1-13.61-5.05c-3.37-3.23-3.79-7.86-3.93-10.52l-0.28-13.47h1.12v3.93
		L499.52,240.15z"/>
	<polygon id="XMLID_127_" class="st0" points="465.71,281.67 466.83,268.06 468.09,268.2 467.67,272.55 498.95,275.36 
		499.38,271.15 500.5,271.15 499.24,284.76 498.11,284.62 498.53,280.27 467.25,277.46 466.83,281.81 	"/>
	<path id="XMLID_128_" class="st0" d="M465.29,284.2l0.14-0.7l8.56,1.54l-0.14,0.98c-4.77,0.56-8.84,3.23-9.82,8.14
		c-0.84,4.21,1.26,8.84,5.61,9.68c2.95,0.56,4.35,0.14,6.59-3.51c0.98-1.68,5.05-8.98,5.61-9.54c2.24-2.52,5.61-3.09,8.28-2.67
		c2.1,0.42,3.65,1.26,5.33,3.09c1.68,1.82,2.81,4.63,2.1,8.28c-0.42,2.24-2.38,5.19-3.37,6.03l1.12,2.1l-0.14,0.7l-7.72-1.4
		l0.14-0.98c4.35-0.28,8.14-2.67,8.84-7.01c0.56-3.37-0.98-7.43-4.77-8.14c-8.28-1.54-6.45,18.24-19.92,15.71
		c-6.73-1.26-10.24-6.31-8.98-12.76c0.56-2.81,1.82-5.47,4.21-7.01L465.29,284.2z"/>
	<path id="XMLID_129_" class="st0" d="M481.28,351.81l-1.12-0.42l1.54-3.93l-27.07-10.52c-4.63-1.82-6.17-6.73-4.63-10.94
		c0.84-2.1,3.23-4.35,6.03-3.23c1.68,0.7,2.52,1.96,1.82,3.65c-0.56,1.4-1.96,2.1-3.37,1.54c-1.4-0.56-1.54-1.68-2.1-1.82
		c-0.56-0.28-1.12,0.7-1.4,1.26c-0.7,1.68,0.28,3.09,2.1,3.79l30.3,11.78l1.68-4.21l1.12,0.42L481.28,351.81z"/>
	<path id="XMLID_130_" class="st0" d="M449.3,341.57l0.98,0.56l-2.1,3.93l27.77,14.59l2.1-3.93l0.98,0.56l-11.92,22.58l-7.29-3.79
		l0.56-0.98c5.75,2.1,8.14-0.28,10.24-4.35l3.09-5.75l-12.91-6.73c-2.38,4.49-3.09,5.89,1.26,9.12l-0.56,0.98l-11.22-5.89l0.56-0.98
		c4.91,2.24,6.45,0.7,8.84-3.65l-13.75-7.29l-2.81,5.33c-3.09,5.89-3.37,8.28,2.52,12.91l-0.56,1.12l-8-5.05L449.3,341.57z"/>
	<path id="XMLID_131_" class="st0" d="M434.29,368.64l0.42-0.56l7.15,5.05l-0.56,0.84c-4.49-1.54-9.4-0.7-12.2,3.23
		c-2.52,3.51-2.52,8.56,1.12,11.08c2.38,1.68,3.93,1.96,7.43-0.42c1.68-1.12,8.28-6.03,9.12-6.31c3.23-1.4,6.31-0.56,8.7,1.12
		c1.68,1.12,2.81,2.67,3.51,5.05c0.7,2.38,0.7,5.33-1.54,8.42c-1.4,1.96-4.35,3.79-5.61,4.07l0.14,2.38l-0.42,0.56l-6.45-4.49
		l0.56-0.84c4.07,1.54,8.42,0.98,11.08-2.67c1.96-2.81,2.24-7.15-0.84-9.4c-6.87-4.77-13.47,13.89-24.69,6.03
		c-5.61-3.93-6.59-9.96-2.81-15.43c1.68-2.24,3.93-4.21,6.73-4.63L434.29,368.64z"/>
	<polygon id="XMLID_132_" class="st0" points="446.91,409.46 438.36,418.86 437.51,418.16 440.18,415.21 415.91,404.41 
		415.77,404.55 428.82,427.56 431.9,424.19 432.75,424.89 426.29,432.04 425.45,431.2 427.84,428.54 410.58,398.24 411.42,397.26 
		443.55,411.42 446.07,408.76 	"/>
	<polygon id="XMLID_133_" class="st0" points="137.89,435.13 138.45,434.15 147.15,438.92 141.68,463.75 141.82,463.89 
		159.91,445.79 168.61,450.56 168.05,451.54 164.68,449.72 149.95,476.93 153.32,478.76 152.76,479.74 141.82,473.85 142.38,472.86 
		145.74,474.69 160.19,447.89 160.19,447.89 136.63,471.04 135.5,470.34 142.24,438.22 142.24,438.22 127.79,464.87 131.02,466.69 
		130.45,467.67 122.6,463.47 123.16,462.34 126.39,464.17 141.26,436.95 	"/>
	<path id="XMLID_134_" class="st0" d="M159.35,482.4l0.42-1.12l4.07,1.54l10.38-29.18l-4.07-1.54l0.42-1.12l23.71,8.56l-2.67,7.57
		l-0.98-0.42c1.26-5.89-1.4-7.86-5.61-9.4l-6.03-2.24l-4.77,13.47c4.77,1.68,6.31,2.24,8.7-2.52l0.98,0.42l-4.21,11.78l-0.98-0.42
		c1.54-5.05-0.28-6.45-4.91-8.14l-5.19,14.45l5.61,2.1c6.17,2.24,8.56,2.24,12.2-4.35l1.26,0.42l-3.79,8.56L159.35,482.4z"/>
	<path id="XMLID_137_" class="st0" d="M200.31,494.19l4.77,0.98c5.61,1.12,8.14-1.4,9.54-3.37c1.4-2.1,2.52-6.31,3.51-10.94
		c1.4-6.87,2.24-14.17-7.86-16.27l-3.65-0.7L200.31,494.19z M201.71,462.76l-3.79-0.7l0.28-1.12l13.05,2.67
		c9.26,1.82,13.89,9.4,11.92,19.08c-1.12,5.61-4.21,9.4-7.72,11.92c-3.79,2.52-8.42,1.96-10.94,1.4l-12.91-2.67l0.28-1.12l3.79,0.7
		L201.71,462.76z"/>
	<polygon id="XMLID_138_" class="st0" points="239.45,501.06 226.12,499.8 226.12,498.67 230.47,499.09 233.28,468.23 
		229.07,467.81 229.21,466.69 242.53,467.95 242.39,469.08 238.04,468.66 235.24,499.52 239.45,499.94 	"/>
	<path id="XMLID_141_" class="st0" d="M268.34,484.65c-0.14-10.24-1.96-16.13-8.84-16.13c-6.87,0.14-8.56,6.03-8.28,16.41
		c0.14,10.24,1.96,16.27,8.84,16.13C266.8,500.92,268.48,494.89,268.34,484.65 M245.48,485.07c-0.14-8.84,5.47-17.39,14.03-17.53
		c8.56-0.14,14.45,8.28,14.59,17.11s-5.47,17.53-14.03,17.67C251.37,502.32,245.62,493.76,245.48,485.07"/>
	<path id="XMLID_142_" class="st0" d="M281.11,500.5l-0.14-1.12l4.07-0.56l-4.63-30.58l-4.07,0.56l-0.14-1.12l13.33-1.96l0.14,1.12
		l-4.49,0.7l4.63,30.58l8.84-1.26c4.07-0.56,5.19-5.75,5.33-9.12l0.98-0.14l0.84,9.26L281.11,500.5z"/>
	<path id="XMLID_145_" class="st0" d="M323.33,478.19l-7.57-11.78h-0.14l-0.56,14.17L323.33,478.19z M309.72,496.15l-0.28-1.12
		l3.79-1.12l1.4-34.23l1.82-0.56l18.8,28.48l3.37-0.98l0.28,1.12l-12.06,3.51l-0.28-1.12l3.93-1.12l-6.31-9.54l-9.12,2.67
		l-0.42,11.5l4.07-1.12l0.28,1.12L309.72,496.15z"/>
	<polygon id="XMLID_146_" class="st0" points="335.54,454.63 332.03,456.17 331.47,455.19 340.3,451.12 363.17,467.25 
		363.31,467.25 353.77,446.35 350.26,447.89 349.84,446.91 358.12,443.13 358.68,444.11 355.17,445.65 368.78,475.67 367.52,476.09 
		337.36,454.91 337.36,454.91 349.7,482.12 353.21,480.58 353.63,481.7 345.21,485.49 344.79,484.37 348.3,482.82 	"/>
	<polygon id="XMLID_147_" class="st0" points="388.56,463.32 377.06,470.2 376.36,469.22 380.14,466.97 364.29,440.46 360.5,442.56 
		359.94,441.58 371.45,434.71 372.15,435.69 368.36,437.94 384.21,464.59 387.86,462.34 	"/>
</g>
</svg>
